# xmcd CD database file
#
# Track frame offsets:
#	150
#	17546
#	36564
#	51208
#	68741
#	80755
#	97188
#	113307
#	131019
#	145593
#	157632
#	179952
#	191441
#
# Disc length: 2762 seconds
#
# Revision: 0
# Processed by: cddbd v1.5.2PL0 Copyright (c) Steve Scherf et al.
# Submitted via: CDex 1.70beta2
#
DISCID=ad0ac80d
DTITLE=L.Manuel Menéndez and Guillermo Mazzuca - Marambó
DYEAR=2006
DGENRE=Merengue
TTITLE0=Inolvidable
TTITLE1=Desafinado
TTITLE2=Dos gardenias
TTITLE3=Eu sei que vou te amar
TTITLE4=Manha Do Carnaval
TTITLE5=La barca
TTITLE6=Nostalgia
TTITLE7=Contigo en la distancia
TTITLE8=Sabor a mi
TTITLE9=Garota de Ipanema
TTITLE10=Claudia
TTITLE11=Solamente una vez
TTITLE12=Tears in heaven
EXTD=YEAR: 2006
EXTT0=
EXTT1=
EXTT2=
EXTT3=
EXTT4=
EXTT5=
EXTT6=
EXTT7=
EXTT8=
EXTT9=
EXTT10=
EXTT11=
EXTT12=
PLAYORDER=
